<svg id="a758231e-5272-481f-87e8-e139301979e4" data-name="Layer 1" xmlns="http://www.w3.org/2000/svg" xmlns:xlink="http://www.w3.org/1999/xlink" viewBox="0 0 1280 1280"><defs><style>.f1be40e7-00e3-44f4-9095-30aa68414dc7{fill:url(#fce46d48-1710-4989-9719-f810b9ace2dd);}.b57e2370-3046-4fd2-97eb-629ee0de60f9{fill:url(#b8b84ff5-277d-4e6a-ba79-d346f8bf3d06);}.ee8402fd-0ff0-4071-8d42-1c0201564f7b{fill:url(#b2e3ed64-4133-46c2-837b-1d5dfc6292df);}</style><linearGradient id="fce46d48-1710-4989-9719-f810b9ace2dd" x1="60.4" y1="640" x2="1219.6" y2="640" gradientUnits="userSpaceOnUse"><stop offset="0.01" stop-color="#03002e"/><stop offset="1" stop-color="#090088"/></linearGradient><linearGradient id="b8b84ff5-277d-4e6a-ba79-d346f8bf3d06" x1="60.4" y1="641.45" x2="1219.6" y2="641.45" xlink:href="#fce46d48-1710-4989-9719-f810b9ace2dd"/><linearGradient id="b2e3ed64-4133-46c2-837b-1d5dfc6292df" x1="60.4" y1="641.46" x2="1219.6" y2="641.46" xlink:href="#fce46d48-1710-4989-9719-f810b9ace2dd"/></defs><title>MTP</title><path class="f1be40e7-00e3-44f4-9095-30aa68414dc7" d="M417.38,440.38V839.62H333.19V625.26l-44.66,44.66L271.32,687.1l-4.63,4.64-15.4,15.38-11.15,11.14L183.48,661.6,144.6,622.73,60.4,538.54V440.38H81.35l80.08,80.09,78.73,78.74L399,440.38ZM60.4,621.5l84.2,84V839.61H60.4Z"/><path class="b57e2370-3046-4fd2-97eb-629ee0de60f9" d="M835,443.28v84.19H695.8v0H611.61v0H478V443.28ZM611.61,839.62V586.18H695.8V839.62Z"/><path class="ee8402fd-0ff0-4071-8d42-1c0201564f7b" d="M1219.6,556.29a113.11,113.11,0,0,1-71.71,105.19s-.86.77-15.63,4.42-17.26,3.7-17.26,3.7H979.19v170H895V584.91h84.19v.18H1106.6a28.8,28.8,0,1,0,0-57.6,17.64,17.64,0,0,0-1.87.07h-.21l-.58.09h-13.67v-.17H895v-84.2H1112s9,1.11,17.23,2.7,14.13,3.39,14.13,3.39A113,113,0,0,1,1219.6,556.29Z"/></svg>