<svg id="f7d24b16-ee4d-4826-928c-b195c8f771b2" data-name="Layer 1" xmlns="http://www.w3.org/2000/svg" xmlns:xlink="http://www.w3.org/1999/xlink" viewBox="0 0 1280 1280"><defs><style>.a5df0fbf-0fcc-463d-8dd9-83b376b5c25e{fill:url(#eb68457b-3dcf-4b23-ac57-1b40d4058539);}</style><linearGradient id="eb68457b-3dcf-4b23-ac57-1b40d4058539" x1="60.41" y1="689.23" x2="1219.6" y2="689.23" gradientUnits="userSpaceOnUse"><stop offset="0.01" stop-color="#03002e"/><stop offset="1" stop-color="#090088"/></linearGradient></defs><title>MTP</title><path class="a5df0fbf-0fcc-463d-8dd9-83b376b5c25e" d="M417.39,489.61V888.85h-84.2V674.49l-44.65,44.66-17.21,17.19L266.7,741l-15.4,15.38-11.16,11.14-56.65-56.66L144.6,672,60.41,587.77V489.61H81.35l80.09,80.09,78.72,78.74L399,489.61Zm-357,181.12,84.19,84V888.84H60.41Z"/><path class="a5df0fbf-0fcc-463d-8dd9-83b376b5c25e" d="M835,492.51V576.7H695.8v0H611.61v0H478V492.51ZM611.61,888.85V635.41H695.8V888.85Z"/><path class="a5df0fbf-0fcc-463d-8dd9-83b376b5c25e" d="M1219.6,605.52a113.09,113.09,0,0,1-71.7,105.19s-.86.77-15.63,4.42-17.26,3.7-17.26,3.7H979.19v170H895V634.15h84.19v.17h127.42a28.8,28.8,0,1,0,0-57.6c-.7,0-1.34,0-1.88.07l-.21,0-.58.08h-13.66v-.17H895V508.31l0-15.79H1112s9,1.11,17.22,2.71,14.14,3.38,14.14,3.38A113,113,0,0,1,1219.6,605.52Z"/></svg>