<svg id="a869421b-f983-43dd-a2e8-5e123d5458b2" data-name="Layer 1" xmlns="http://www.w3.org/2000/svg" viewBox="0 0 1280 500"><title>MTP_header</title><path d="M417.38,50.38V449.62H333.19V235.26l-44.66,44.66L271.32,297.1l-4.63,4.64-15.4,15.38-11.15,11.14L183.48,271.6,144.6,232.73,60.4,148.54V50.38H81.35l80.08,80.09,78.73,78.74L399,50.38ZM60.4,231.5l84.2,84V449.61H60.4Z"/><path d="M835,53.28v84.19H695.8v0H611.61v0H478V53.28ZM611.61,449.62V196.18H695.8V449.62Z"/><path d="M1219.6,166.29a113.11,113.11,0,0,1-71.71,105.19s-.86.77-15.63,4.42-17.26,3.7-17.26,3.7H979.19v170H895V194.91h84.19v.18H1106.6a28.8,28.8,0,1,0,0-57.6,17.64,17.64,0,0,0-1.87.07h-.21l-.58.09h-13.67v-.17H895V53.29H1112s9,1.11,17.23,2.7,14.13,3.39,14.13,3.39A113,113,0,0,1,1219.6,166.29Z"/></svg>